<svg width="32" height="32" viewBox="0 0 32 32" fill="none" xmlns="http://www.w3.org/2000/svg">
<g clip-path="url(#clip0)">
<path d="M8.66662 0.937256H3.33331V9.9789H8.66662V0.937256Z" fill="#D6A81A"/>
<path d="M15.3333 0.937256H10V21.6039H15.3333V0.937256Z" fill="#D6A81A"/>
<path d="M15.3333 22.8956H10V31.9373H15.3333V22.8956Z" fill="#D6A81A"/>
<path d="M22 0.937256H16.6667V12.5623H22V0.937256Z" fill="#D6A81A"/>
<path d="M23.3333 0.937256V18.3748C23.3333 18.7314 23.6318 19.0206 24 19.0206H28C28.3682 19.0206 28.6667 18.7314 28.6667 18.3748V0.937256H23.3333Z" fill="#D6A81A"/>
<path d="M22 13.8539H16.6667V31.9372H22V13.8539Z" fill="#D6A81A"/>
<path d="M3.33331 26.1248C3.33331 26.4814 3.63181 26.7706 4 26.7706H7.99999C8.36818 26.7706 8.66668 26.4814 8.66668 26.1248V11.2706H3.33331V26.1248Z" fill="#D6A81A"/>
</g>
<defs>
<clipPath id="clip0">
<rect width="32" height="31" fill="white" transform="translate(0 0.937256)"/>
</clipPath>
</defs>
</svg>
