<svg width="145" height="85" viewBox="0 0 145 85" fill="none" xmlns="http://www.w3.org/2000/svg">
<path d="M72.6423 21.765L37.045 1.28456L1.44727 21.765V58.978H72.6423V21.765Z" fill="url(#paint0_linear)"/>
<path d="M143.838 21.765L108.24 1.28456L72.6421 21.765V58.978H143.838V21.765Z" fill="url(#paint1_linear)"/>
<path d="M73.4582 22.2971L108.241 2.28417L143.023 22.2971V58.978H144.653V21.3587L108.241 0.409054L71.8274 21.3587V58.978H73.4582V22.2971Z" fill="url(#paint2_linear)"/>
<path d="M12.0034 64.0105H133.284" stroke="#211D1D" stroke-width="1.33333" stroke-miterlimit="10"/>
<path d="M15.6257 77.7288H16.6225V83.0481C15.9993 83.6437 15.2419 84.0948 14.3514 84.407C13.4627 84.7181 12.5222 84.8728 11.5316 84.8728C10.1197 84.8728 8.84541 84.5634 7.71214 83.9401C6.5783 83.3179 5.68953 82.4594 5.04471 81.3612C4.39932 80.2658 4.0769 79.035 4.0769 77.6682C4.0769 76.3008 4.39932 75.0706 5.04471 73.9747C5.68953 72.8787 6.5783 72.018 7.71214 71.3946C8.84541 70.7741 10.126 70.4619 11.5521 70.4619C12.5978 70.4619 13.5582 70.6268 14.4339 70.9589C15.3096 71.2909 16.0602 71.7743 16.6839 72.4107L16.0329 73.1014C15.4358 72.5059 14.7665 72.0752 14.0262 71.8111C13.2858 71.5476 12.4681 71.4145 11.5726 71.4145C10.3506 71.4145 9.2463 71.6859 8.26257 72.2293C7.27771 72.7705 6.50722 73.5174 5.95167 74.4716C5.39441 75.4248 5.11635 76.4901 5.11635 77.6682C5.11635 78.831 5.39783 79.8901 5.96134 80.8432C6.52484 81.7975 7.29534 82.5478 8.27224 83.098C9.24971 83.6454 10.3506 83.9202 11.5726 83.9202C13.2017 83.9202 14.5522 83.4873 15.6257 82.6197V77.7288Z" fill="#232121"/>
<path d="M21.1851 70.5639H22.2245V83.8397H30.4326V84.7725H21.1851V70.5639Z" fill="#232121"/>
<path d="M41.5526 79.9005L37.8053 71.7003L34.0774 79.9005H41.5526ZM41.9398 80.7726H33.6703L31.8575 84.7727H30.7373L37.2953 70.5635H38.3342L44.8921 84.7727H43.7725L41.9398 80.7726Z" fill="#232121"/>
<path d="M57.4387 83.8395V84.7722H45.9519V84.0429L55.7892 71.498H46.0747V70.5636H57.2153V71.294L47.3974 83.8395H57.4387Z" fill="#232121"/>
<path d="M62.0107 83.3116C61.0139 82.27 60.5146 80.7463 60.5146 78.7425V70.5638H61.553V78.7029C61.553 80.4493 61.9533 81.7532 62.7545 82.6197C63.5557 83.4878 64.7162 83.9202 66.2379 83.9202C67.7442 83.9202 68.8985 83.4878 69.6997 82.6197C70.5009 81.7532 70.9018 80.4493 70.9018 78.7029V70.5638H71.9401V78.7425C71.9401 80.7463 71.438 82.27 70.4332 83.3116C69.4279 84.3531 68.0228 84.8733 66.2174 84.8733C64.4103 84.8733 63.0086 84.3531 62.0107 83.3116Z" fill="#232121"/>
<path d="M81.9003 79.2098C83.4208 79.2098 84.5808 78.8743 85.3826 78.2062C86.1838 77.5353 86.5841 76.5867 86.5841 75.3536C86.5841 74.124 86.1838 73.1725 85.3826 72.5039C84.5808 71.8312 83.4208 71.498 81.9003 71.498H77.8272V79.2098H81.9003ZM86.6864 84.7722L83.2849 80.0224C82.7828 80.0898 82.3199 80.1238 81.9003 80.1238H77.8272V84.7722H76.7883V70.5636H81.9003C83.6926 70.5636 85.0977 70.9875 86.1161 71.8312C87.1345 72.6778 87.6434 73.852 87.6434 75.3536C87.6434 76.4773 87.3551 77.4225 86.778 78.1858C86.2008 78.9486 85.3763 79.4875 84.3039 79.7986L87.868 84.7722H86.6864Z" fill="#232121"/>
<path d="M90.21 78.8658H95.4447V79.7776H90.21V78.8658Z" fill="#232121"/>
<path d="M112.675 84.7725L112.655 72.6124L106.687 82.8843H106.178L100.21 72.6543V84.7725H99.1912V70.5639H100.066L106.442 81.5442L112.818 70.5639H113.672L113.693 84.7725H112.675Z" fill="#232121"/>
<path d="M127.095 79.9005L123.348 71.7003L119.62 79.9005H127.095ZM127.483 80.7726H119.213L117.4 84.7727H116.28L122.838 70.5635H123.878L130.435 84.7727H129.315L127.483 80.7726Z" fill="#232121"/>
<path d="M135.037 71.498H129.905V70.5641H141.209V71.498H136.076V84.7727H135.037V71.498Z" fill="#232121"/>
<path d="M0.632324 21.3593V58.978H2.26201V22.2971L37.0455 2.28417L71.8268 22.2971V58.978H73.4581V21.3593L37.0455 0.409054L0.632324 21.3593Z" fill="url(#paint3_linear)"/>
<path d="M37.0454 21.765V58.978H108.24V21.765L72.6421 1.28456L37.0454 21.765Z" fill="url(#paint4_linear)"/>
<path d="M36.2307 21.3593V58.978H37.8604V22.2971L72.6422 2.28417L107.426 22.2971V58.978H109.055V21.3593L72.6422 0.409054L36.2307 21.3593Z" fill="url(#paint5_linear)"/>
<defs>
<linearGradient id="paint0_linear" x1="55.6581" y1="72.5012" x2="20.2445" y2="10.9507" gradientUnits="userSpaceOnUse">
<stop stop-color="#464648"/>
<stop offset="0.00623093" stop-color="#464648"/>
<stop offset="1" stop-color="#100F0D"/>
</linearGradient>
<linearGradient id="paint1_linear" x1="126.854" y1="72.5006" x2="91.4405" y2="10.9502" gradientUnits="userSpaceOnUse">
<stop stop-color="#464648"/>
<stop offset="0.0596147" stop-color="#DADAD8"/>
<stop offset="0.270182" stop-color="#DADAD8"/>
<stop offset="0.429228" stop-color="#DADAD8"/>
<stop offset="1" stop-color="#464648"/>
</linearGradient>
<linearGradient id="paint2_linear" x1="71.8273" y1="29.6935" x2="144.653" y2="29.6935" gradientUnits="userSpaceOnUse">
<stop stop-color="#FCCC3D"/>
<stop offset="0.321608" stop-color="#FCDC72"/>
<stop offset="1" stop-color="#956A1E"/>
</linearGradient>
<linearGradient id="paint3_linear" x1="0.632222" y1="29.6935" x2="73.4579" y2="29.6935" gradientUnits="userSpaceOnUse">
<stop stop-color="#FCCC3D"/>
<stop offset="0.321608" stop-color="#FCDC72"/>
<stop offset="1" stop-color="#956A1E"/>
</linearGradient>
<linearGradient id="paint4_linear" x1="91.2566" y1="72.5017" x2="55.8426" y2="10.9507" gradientUnits="userSpaceOnUse">
<stop stop-color="#FCCC3D"/>
<stop offset="0.321608" stop-color="#FCDC72"/>
<stop offset="1" stop-color="#956A1E"/>
</linearGradient>
<linearGradient id="paint5_linear" x1="36.2306" y1="29.6935" x2="109.055" y2="29.6935" gradientUnits="userSpaceOnUse">
<stop stop-color="#FCCC3D"/>
<stop offset="0.321608" stop-color="#FCDC72"/>
<stop offset="1" stop-color="#956A1E"/>
</linearGradient>
</defs>
</svg>
