<svg width="36" height="36" viewBox="0 0 36 36" fill="none" xmlns="http://www.w3.org/2000/svg">
<g clip-path="url(#clip0)">
<path d="M32.7345 13.5H29.454V16.7655H26.1885V20.046H29.454V23.3115H32.7345V20.046H36V16.7655H32.7345V13.5Z" fill="#303030"/>
<path d="M11.25 29.25C17.742 29.25 22.0545 24.693 22.0545 18.261C22.0545 17.5245 21.978 16.956 21.8715 16.389H11.2515V20.256H17.637C17.376 21.8985 15.7035 25.1055 11.2515 25.1055C7.416 25.1055 4.284 21.9285 4.284 18C4.284 14.0715 7.4145 10.893 11.2515 10.893C13.446 10.893 14.904 11.829 15.7335 12.627L18.7875 9.696C16.821 7.8555 14.289 6.75 11.25 6.75C5.034 6.75 0 11.784 0 18C0 24.216 5.034 29.25 11.25 29.25Z" fill="#303030"/>
</g>
<defs>
<clipPath id="clip0">
<rect width="36" height="36" fill="white"/>
</clipPath>
</defs>
</svg>
