<svg width="32" height="32" viewBox="0 0 32 32" fill="none" xmlns="http://www.w3.org/2000/svg">
<path d="M9.96245 15.5C11.747 15.5 13.1937 14.0531 13.1937 12.2688C13.1937 10.4842 11.747 9.03751 9.96245 9.03751C8.17788 9.03751 6.7312 10.4842 6.7312 12.2688C6.73354 14.0523 8.17886 15.4977 9.96245 15.5ZM9.96245 10.2938C11.0566 10.2938 11.9437 11.1807 11.9437 12.275C11.9437 13.3691 11.0566 14.2563 9.96245 14.2563C8.86812 14.2563 7.9812 13.3691 7.9812 12.275C7.98159 11.1809 8.86831 10.2941 9.96245 10.2938Z" fill="#727272"/>
<path d="M9.9625 16.6937C8.64043 16.684 7.37148 17.2146 6.45 18.1625C5.5125 19.1187 5 20.4187 5 21.8312C5.00098 22.176 5.28027 22.4553 5.625 22.4562H14.3C14.6447 22.4553 14.924 22.176 14.925 21.8312C14.925 20.4187 14.4125 19.1187 13.475 18.1625C12.5535 17.2146 11.2848 16.684 9.9625 16.6937ZM6.29375 21.2062C6.40078 20.389 6.76914 19.6285 7.34375 19.0375C8.03535 18.3377 8.97852 17.9437 9.9625 17.9437C10.9465 17.9437 11.8896 18.3377 12.5813 19.0375C13.1547 19.6291 13.523 20.3894 13.6313 21.2062H6.29375Z" fill="#727272"/>
<path d="M27.875 4.6875H4.125C2.39941 4.68828 1.00078 6.08691 1 7.8125V23.6875C1.00078 25.4131 2.39941 26.8117 4.125 26.8125H27.875C29.6006 26.8117 30.9992 25.4131 31 23.6875V7.8125C30.9992 6.08691 29.6006 4.68828 27.875 4.6875ZM29.75 23.6875C29.7471 24.7217 28.9092 25.5596 27.875 25.5625H4.125C3.09082 25.5596 2.25293 24.7217 2.25 23.6875V7.8125C2.25293 6.77832 3.09082 5.94043 4.125 5.9375H27.875C28.9092 5.94043 29.7471 6.77832 29.75 7.8125V23.6875Z" fill="#727272"/>
<path d="M26.3374 15.125H19.0562C18.711 15.125 18.4312 15.4047 18.4312 15.75C18.4312 16.0953 18.711 16.375 19.0562 16.375H26.3374C26.6825 16.375 26.9624 16.0953 26.9624 15.75C26.9624 15.4047 26.6825 15.125 26.3374 15.125Z" fill="#727272"/>
<path d="M26.3374 19.125H19.0562C18.711 19.125 18.4312 19.4047 18.4312 19.75C18.4312 20.0953 18.711 20.375 19.0562 20.375H26.3374C26.6825 20.375 26.9624 20.0953 26.9624 19.75C26.9624 19.4047 26.6825 19.125 26.3374 19.125Z" fill="#727272"/>
<path d="M26.3374 11.125H19.0562C18.711 11.125 18.4312 11.4047 18.4312 11.75C18.4312 12.0953 18.711 12.375 19.0562 12.375H26.3374C26.6825 12.375 26.9624 12.0953 26.9624 11.75C26.9624 11.4047 26.6825 11.125 26.3374 11.125Z" fill="#727272"/>
</svg>
