<svg width="32" height="32" viewBox="0 0 32 32" fill="none" xmlns="http://www.w3.org/2000/svg">
<path d="M22.7046 0H9.2955C4.16994 0 0 4.16994 0 9.2955V22.7045C0 27.8301 4.16994 32 9.2955 32H22.7045C27.8301 32 32 27.8301 32 22.7046V9.2955C32 4.16994 27.8301 0 22.7046 0ZM29.5 22.7045C29.5 26.4516 26.4516 29.5 22.7046 29.5H9.2955C5.54844 29.5 2.5 26.4516 2.5 22.7046V9.2955C2.5 5.54844 5.54844 2.5 9.2955 2.5H22.7045C26.4516 2.5 29.5 5.54844 29.5 9.2955V22.7045Z" fill="#303030"/>
<path d="M16 7.375C11.2441 7.375 7.375 11.2441 7.375 16C7.375 20.7559 11.2441 24.625 16 24.625C20.7559 24.625 24.625 20.7559 24.625 16C24.625 11.2441 20.7559 7.375 16 7.375ZM16 22.125C12.6227 22.125 9.875 19.3773 9.875 16C9.875 12.6227 12.6227 9.875 16 9.875C19.3773 9.875 22.125 12.6227 22.125 16C22.125 19.3773 19.3773 22.125 16 22.125Z" fill="#303030"/>
<path d="M24.75 8.5C25.4404 8.5 26 7.94036 26 7.25C26 6.55964 25.4404 6 24.75 6C24.0596 6 23.5 6.55964 23.5 7.25C23.5 7.94036 24.0596 8.5 24.75 8.5Z" fill="#303030"/>
</svg>
