<svg width="34" height="35" viewBox="0 0 34 35" fill="none" xmlns="http://www.w3.org/2000/svg">
<g clip-path="url(#clip0)">
<path d="M30.3667 2.97276C30.179 2.8464 29.9149 2.79675 29.6711 2.79675H28.9769H6.04647H5.88185C5.23374 2.79675 4.69768 3.27436 4.69768 3.92537V3.94557V5.50649H2.65893C2.17317 5.50649 2 6.15413 2 6.64173V12.1757C2 12.6028 2.35531 12.9686 2.77347 13.045L16.8373 15.6141V18.3776H15.6184C14.9703 18.3776 14.1395 19.1905 14.1395 19.8417V33.1926C14.1395 33.8436 14.9703 34.6361 15.6184 34.6361H19.1662C19.8135 34.6361 20.2094 33.8436 20.2094 33.1926V19.8417C20.2094 19.1907 19.8136 18.3776 19.1662 18.3776H18.186V14.8772C18.186 14.4504 17.8303 14.085 17.4128 14.0082L3.34868 11.4388V7.53882H4.69757V9.35842C4.69757 10.0094 5.23374 10.2486 5.88174 10.2486H29.671C29.9148 10.2486 30.14 10.3184 30.327 10.1916C30.4522 10.107 30.6372 10.0709 30.7215 9.94554C30.8486 9.75737 31 9.60222 31 9.35842V5.5079V3.92548C31 3.68167 30.8486 3.45471 30.7215 3.26686C30.6374 3.14083 30.4912 3.0575 30.3667 2.97276Z" fill="#D6A81A"/>
</g>
<defs>
<clipPath id="clip0">
<rect width="34" height="33.8293" fill="white" transform="translate(0 0.806763)"/>
</clipPath>
</defs>
</svg>
