<svg width="32" height="32" viewBox="0 0 32 32" fill="none" xmlns="http://www.w3.org/2000/svg">
<g clip-path="url(#clip0)">
<path d="M31.1291 23.4848L26.6634 19.0191C25.0685 17.4242 22.3572 18.0622 21.7193 20.1355C21.2408 21.571 19.6459 22.3684 18.2105 22.0494C15.0207 21.2519 10.7145 17.1052 9.91708 13.7559C9.43861 12.3205 10.3955 10.7256 11.831 10.2472C13.9043 9.60922 14.5423 6.89791 12.9474 5.30301L8.48168 0.837318C7.20577 -0.279106 5.2919 -0.279106 4.17548 0.837318L1.14518 3.86761C-1.88511 7.05739 1.46416 15.5103 8.96015 23.0063C16.4561 30.5023 24.9091 34.0111 28.0988 30.8213L31.1291 27.791C32.2456 26.5151 32.2456 24.6012 31.1291 23.4848Z" fill="#303030"/>
</g>
<defs>
<clipPath id="clip0">
<rect width="32" height="32" fill="white"/>
</clipPath>
</defs>
</svg>
