<svg width="32" height="33" viewBox="0 0 32 33" fill="none" xmlns="http://www.w3.org/2000/svg">
<g clip-path="url(#clip0)">
<path d="M22.709 17.0454L21.8032 17.7429L26.3342 23.6292C26.459 23.7908 26.6604 23.8738 26.8628 23.8467C27.0649 23.8196 27.2375 23.6868 27.3154 23.4981C27.3931 23.3091 27.3643 23.0933 27.2397 22.9314L22.709 17.0454Z" fill="#D6A81A"/>
<path d="M12.6396 16.1423C12.2568 15.6414 12.1809 14.9705 12.4424 14.3965C11.2759 12.6782 10.6226 10.6848 10.3508 7.98901C9.76196 2.0979 9.19751 0.50293 6.34814 0.50293H0.0625V32.5029H19.0361C19.2969 31.3772 19.4492 30.229 19.491 29.0745C19.491 28.7588 19.7468 28.5029 20.0625 28.5029C20.3782 28.5029 20.634 28.7588 20.634 29.0745C20.5996 30.2283 20.4563 31.3762 20.2056 32.5029H21.8513C22.02 31.1245 22.0811 29.7349 22.0339 28.3469L12.6396 16.1423ZM9.46069 12.4426C9.3252 12.5105 9.16821 12.5217 9.02441 12.4736C8.88062 12.4258 8.76172 12.3228 8.69409 12.187C7.948 10.6943 7.88062 9.22949 7.80957 7.67822C7.78687 6.65063 7.68408 5.62671 7.50195 4.61523C7.04028 2.30566 3.03223 2.7793 2.99023 2.78442C2.78638 2.8125 2.58301 2.72876 2.45801 2.56519C2.33301 2.40137 2.30591 2.18335 2.38672 1.9939C2.46753 1.80444 2.64404 1.67334 2.84863 1.65039C3.05688 1.62231 7.95508 1.05103 8.6228 4.39087C8.81738 5.45898 8.92725 6.54077 8.95142 7.62622C9.01953 9.1145 9.07861 10.4001 9.71655 11.6758C9.78442 11.8115 9.79541 11.9685 9.74756 12.1123C9.69971 12.2561 9.59644 12.3748 9.46094 12.4426H9.46069Z" fill="#D6A81A"/>
<path d="M20.7906 9.8689C20.698 9.74878 20.5618 9.67017 20.4116 9.65064C20.2613 9.63086 20.1094 9.67163 19.989 9.76416L13.6494 14.6436C13.3997 14.8362 13.3531 15.1948 13.5454 15.4448L24.6988 29.9353C24.8914 30.1855 25.25 30.2322 25.5003 30.0398L31.8394 25.1609C32.0891 24.9683 32.1363 24.6099 31.9444 24.3596L20.7906 9.8689ZM27.833 24.6392L27.8325 24.6396C27.0818 25.2153 26.0069 25.075 25.429 24.3259L20.8977 18.4402C20.7127 18.2 20.6306 17.896 20.6697 17.5955C20.709 17.2947 20.866 17.022 21.1062 16.8372L20.409 15.9314C20.2249 15.6904 19.9519 15.5332 19.6509 15.4946C19.3504 15.4558 19.0469 15.5378 18.8064 15.7222L18.3538 16.0708C18.1924 16.2002 17.9739 16.2322 17.7823 16.1548C17.5906 16.0774 17.4556 15.9023 17.4295 15.6973C17.4033 15.4919 17.4903 15.2888 17.6563 15.1658L18.1092 14.8171C18.5894 14.4473 19.1971 14.2834 19.7984 14.3616C20.3997 14.4399 20.9451 14.7539 21.3147 15.2344L22.012 16.1394C22.512 15.7546 23.2295 15.8479 23.6145 16.3477L28.145 22.2344C28.7215 22.9849 28.5821 24.0603 27.833 24.6392Z" fill="#D6A81A"/>
</g>
<defs>
<clipPath id="clip0">
<rect width="32" height="32" fill="white" transform="translate(0 0.50293)"/>
</clipPath>
</defs>
</svg>
