<svg width="32" height="32" viewBox="0 0 32 32" fill="none" xmlns="http://www.w3.org/2000/svg">
<g clip-path="url(#clip0)">
<path d="M10.3683 23.6695L21.4975 23.7871H21.5023C21.6388 23.7816 21.7678 23.7228 21.8615 23.623C21.9587 23.5201 22.0119 23.3832 22.0102 23.2419V15.6446H23.2792C23.4945 15.6461 23.6879 15.5133 23.7636 15.3118C23.8393 15.1104 23.7813 14.883 23.6182 14.7426L16.3485 8.43171C16.1542 8.26308 15.8654 8.26308 15.671 8.43171L8.38242 14.7439C8.21934 14.884 8.16103 15.1112 8.23676 15.3124C8.31249 15.5138 8.50586 15.6463 8.72093 15.6446H9.86068V23.1381C9.8574 23.4239 10.0828 23.6597 10.3683 23.6695V23.6695ZM17.357 22.686L14.7075 22.6615V19.6512H17.357V22.686ZM20.9759 22.7196L18.391 22.6956V19.1256C18.3865 18.8401 18.1512 18.6124 17.8657 18.6172H14.1937C14.0572 18.6152 13.9254 18.6677 13.8277 18.7632C13.73 18.8586 13.6747 18.9891 13.6735 19.1256V22.6519L10.8947 22.6262V15.6446H20.9759V22.7196ZM16.009 9.50002L21.8951 14.6106H10.1076L16.009 9.50002Z" fill="#727272"/>
<path d="M28.447 12.1915C28.3513 12.0459 28.1888 11.958 28.0146 11.958C27.8404 11.958 27.6778 12.0459 27.5822 12.1915L24.1135 17.4806C24.0092 17.6419 24.0006 17.8469 24.0907 18.0162C24.1803 18.1849 24.3548 18.2914 24.5459 18.2942H27.3545C26.9173 21.155 25.4685 23.7645 23.2713 25.6484C21.1536 27.4642 18.4955 28.5022 15.9777 28.5022C14.3363 28.5022 12.6198 28.0576 11.0128 27.2198C9.3424 26.3471 7.89367 25.1044 6.77714 23.586C6.67036 23.4315 6.48785 23.3472 6.30079 23.3656C6.11399 23.3843 5.95167 23.5029 5.87746 23.6756C5.80299 23.8483 5.82823 24.0477 5.94309 24.1964C7.15327 25.8423 8.72393 27.1895 10.5347 28.1351C12.2886 29.0495 14.1707 29.5329 15.9777 29.5329C18.7386 29.5329 21.6424 28.4073 23.9443 26.4332C26.374 24.3559 27.9591 21.4605 28.3996 18.2942H31.4833C31.6742 18.2912 31.8483 18.1846 31.9382 18.0162C32.0281 17.8479 32.0195 17.6442 31.9157 17.4839L28.447 12.1915ZM25.5031 17.2602L28.0146 13.4307L30.5261 17.2602H25.5031Z" fill="#727272"/>
<path d="M7.90918 14.0482C7.81957 13.8795 7.64539 13.773 7.4543 13.7705H4.64569C5.08291 10.9094 6.53164 8.30019 8.72884 6.41626C10.8463 4.60024 13.5044 3.56247 16.0225 3.56247C17.6638 3.56247 19.3804 4.00701 20.9874 4.84485C22.6578 5.71727 24.1065 6.96026 25.2228 8.47866C25.3298 8.63315 25.5123 8.71747 25.6994 8.69879C25.8862 8.68011 26.0485 8.56146 26.1227 8.3888C26.1972 8.21638 26.1719 8.01696 26.0571 7.86827C24.8469 6.22239 23.2762 4.87514 21.4655 3.92951C19.7116 3.01494 17.8294 2.53152 16.0225 2.53152C13.2616 2.53152 10.3578 3.65739 8.05585 5.63119C5.6259 7.70873 4.04111 10.6042 3.60061 13.7705H0.516852C0.32601 13.7735 0.151829 13.8798 0.0619621 14.0482C-0.0279051 14.2165 -0.0193222 14.4205 0.084429 14.5805L3.55315 19.8713C3.64857 20.0173 3.81089 20.1051 3.98532 20.1054C4.1595 20.1056 4.32207 20.018 4.418 19.8724L7.88672 14.5803C7.99072 14.4205 7.99956 14.2165 7.90918 14.0482V14.0482ZM3.98557 18.6337L1.47409 14.8045H6.49706L3.98557 18.6337Z" fill="#727272"/>
</g>
<defs>
<clipPath id="clip0">
<rect width="32" height="32" fill="white"/>
</clipPath>
</defs>
</svg>
