<svg width="32" height="32" viewBox="0 0 32 32" fill="none" xmlns="http://www.w3.org/2000/svg">
<path d="M29.8468 17.2388V15.5072C29.8468 14.229 28.8068 13.1891 27.5286 13.1891H22.3632V9.63684L22.5546 9.74765C22.7914 9.88497 23.0544 9.95509 23.321 9.95509C23.4535 9.95509 23.5869 9.93778 23.7183 9.90278C24.1143 9.79728 24.4454 9.54396 24.6505 9.18946L25.0567 8.48757C25.4799 7.75624 25.2293 6.81629 24.4978 6.3921L13.9068 0.260941C13.3074 -0.0869396 12.5625 -0.0868771 11.9635 0.260753L1.37117 6.39222C0.639532 6.81648 0.389278 7.75662 0.813097 8.48757L1.21935 9.18939C1.42442 9.5439 1.75536 9.79728 2.15112 9.90272C2.54694 10.0083 2.96013 9.95328 3.31432 9.74778L3.50658 9.63646V20.7254C3.50658 20.9843 3.71639 21.1941 3.97533 21.1941H15.5322C15.9558 21.753 16.6265 22.1148 17.3802 22.1148H24.7735C25.0324 22.1148 25.2422 21.9049 25.2422 21.646C25.2422 21.3871 25.0324 21.1773 24.7735 21.1773H17.3802C16.6189 21.1773 15.9996 20.5579 15.9996 19.7966V15.5072C15.9996 14.7459 16.6189 14.1265 17.3802 14.1265H27.5285C28.2898 14.1265 28.9092 14.7459 28.9092 15.5072V19.7966C28.9092 20.5579 28.2898 21.1773 27.5285 21.1773H26.6485C26.3896 21.1773 26.1797 21.3871 26.1797 21.646C26.1797 21.9049 26.3896 22.1148 26.6485 22.1148H27.5285C28.8067 22.1148 29.8467 21.0748 29.8467 19.7966V18.2294C30.2064 18.4042 30.4556 18.7721 30.4556 19.1982V21.6101C30.4556 22.2042 29.9722 22.6876 29.378 22.6876H23.8988C22.8439 22.6876 21.9857 23.5458 21.9857 24.6007V25.3785H21.7029C20.8354 25.3785 20.1296 26.0843 20.1296 26.9517V30.4268C20.1296 31.2942 20.8354 31.9999 21.7029 31.9999H23.2061C24.0736 31.9999 24.7793 31.2942 24.7793 30.4268V26.9517C24.7793 26.0842 24.0736 25.3785 23.2061 25.3785H22.9233V24.6007C22.9233 24.0628 23.3609 23.6251 23.8988 23.6251H29.3781C30.4892 23.6251 31.3931 22.7212 31.3931 21.6101V19.1982C31.3932 18.2485 30.7326 17.4506 29.8468 17.2388V17.2388ZM4.44415 20.2567V9.09383L7.97002 7.0528C8.19402 6.92311 8.27059 6.63629 8.14084 6.41229C8.01115 6.18816 7.72445 6.11166 7.50026 6.24147L2.84444 8.93664C2.70681 9.01645 2.54644 9.03789 2.39262 8.99689C2.23899 8.95595 2.11049 8.85757 2.0308 8.71982L1.62436 8.01762C1.45961 7.73356 1.55705 7.36824 1.84124 7.20342L12.4337 1.07183C12.743 0.892451 13.1272 0.892451 13.4367 1.07208L24.0278 7.20324C24.3123 7.36824 24.4099 7.73368 24.2454 8.01794L23.8391 8.71989C23.7595 8.85751 23.6309 8.95589 23.4771 8.99689C23.3231 9.03795 23.1626 9.01645 23.0247 8.93651L13.1695 3.23142C13.0243 3.1473 12.8451 3.1473 12.6998 3.23142L9.12035 5.30396C8.89629 5.43371 8.81978 5.72046 8.9496 5.94453C9.07935 6.1686 9.36617 6.24497 9.59011 6.11534L12.9347 4.17881L21.4257 9.0942V13.1891H17.6281V10.0966C17.6281 9.10752 16.8234 8.30282 15.8343 8.30282H10.0355C9.04641 8.30282 8.24171 9.10752 8.24171 10.0966V15.6586C8.24171 16.6476 9.04641 17.4523 10.0355 17.4523H15.0622V19.7967C15.0622 19.9542 15.0781 20.108 15.1082 20.2568H4.44415V20.2567ZM10.8844 14.8094V13.3461H12.4662V14.8094H10.8844ZM14.9854 10.9455V12.4087H13.4037V10.9455H14.9854ZM12.4662 12.4087H10.8844V10.9455H12.4662V12.4087ZM13.4037 13.3462H14.9854V14.8094H13.4037V13.3462ZM15.9229 13.7063V10.4767C15.9229 10.2178 15.7131 10.008 15.4541 10.008H10.4157C10.1568 10.008 9.94699 10.2178 9.94699 10.4767V15.2781C9.94699 15.537 10.1568 15.7469 10.4157 15.7469H15.0623V16.5148H10.0356C9.56336 16.5148 9.17929 16.1306 9.17929 15.6585V10.0965C9.17929 9.6244 9.56342 9.24027 10.0356 9.24027H15.8344C16.3066 9.24027 16.6907 9.6244 16.6907 10.0965V13.2938C16.4077 13.3822 16.148 13.5238 15.9229 13.7063V13.7063ZM23.8419 26.9517V30.4268C23.8419 30.7774 23.5568 31.0625 23.2062 31.0625H21.7029C21.3524 31.0625 21.0672 30.7774 21.0672 30.4268V26.9517C21.0672 26.6012 21.3524 26.3161 21.7029 26.3161H23.2062C23.5567 26.3161 23.8419 26.6012 23.8419 26.9517Z" fill="#727272"/>
</svg>
