<?xml version="1.0" standalone="no"?>
<!DOCTYPE svg PUBLIC "-//W3C//DTD SVG 20010904//EN"
 "http://www.w3.org/TR/2001/REC-SVG-20010904/DTD/svg10.dtd">
<svg version="1.0" xmlns="http://www.w3.org/2000/svg"
 width="2052.000000pt" height="2052.000000pt" viewBox="0 0 2052.000000 2052.000000"
 preserveAspectRatio="xMidYMid meet">
<metadata>
Created by potrace 1.14, written by Peter Selinger 2001-2017
</metadata>
<g transform="translate(0.000000,2052.000000) scale(0.100000,-0.100000)"
fill="#000000" stroke="none">
<path d="M5096 14360 c-49 -28 -93 -50 -98 -50 -4 0 -8 -4 -8 -8 0 -5 -28 -23
-62 -41 -35 -18 -81 -43 -103 -57 -22 -13 -49 -28 -60 -34 -11 -5 -42 -23 -70
-40 -27 -17 -62 -35 -77 -41 -16 -6 -28 -15 -28 -19 0 -5 -16 -14 -35 -20 -19
-6 -35 -15 -35 -18 0 -4 -20 -16 -45 -27 -25 -11 -45 -22 -45 -25 0 -4 -27
-20 -60 -36 -33 -16 -60 -32 -60 -35 0 -4 -15 -13 -32 -20 -18 -7 -39 -19 -46
-26 -8 -7 -18 -11 -23 -8 -5 4 -9 2 -9 -4 0 -5 -10 -13 -22 -17 -13 -4 -25
-10 -28 -14 -3 -4 -30 -20 -60 -37 -54 -29 -311 -175 -340 -193 -53 -32 -126
-74 -130 -75 -3 0 -27 -14 -55 -30 -27 -17 -63 -38 -80 -48 -16 -10 -42 -23
-57 -30 -16 -6 -28 -15 -28 -19 0 -4 -6 -8 -14 -8 -8 0 -21 -6 -28 -13 -7 -6
-31 -21 -53 -32 -22 -11 -41 -23 -43 -27 -2 -5 -7 -8 -12 -8 -4 0 -46 -22 -93
-50 -47 -27 -90 -50 -96 -50 -6 0 -11 -4 -11 -9 0 -5 -8 -11 -17 -14 -10 -3
-40 -19 -68 -35 -136 -80 -248 -142 -256 -142 -5 0 -9 -4 -9 -10 0 -5 -4 -10
-9 -10 -4 0 -86 -45 -181 -100 -95 -55 -174 -100 -176 -100 -1 0 -48 -27 -104
-60 -56 -33 -103 -60 -105 -60 -2 0 -36 -19 -77 -43 -40 -24 -80 -46 -88 -50
-8 -4 -33 -19 -55 -32 -22 -14 -48 -28 -57 -32 -10 -3 -18 -9 -18 -14 0 -5 -9
-9 -19 -9 -11 0 -21 -3 -23 -8 -1 -4 -82 -52 -178 -107 -96 -55 -184 -105
-195 -112 -11 -7 -27 -15 -35 -19 -8 -4 -27 -16 -42 -26 -16 -11 -28 -16 -28
-11 0 4 -4 3 -8 -3 -4 -6 -34 -26 -67 -43 -33 -18 -73 -41 -90 -51 -16 -11
-43 -26 -60 -35 -16 -8 -43 -23 -60 -33 -16 -10 -57 -34 -90 -52 -33 -18 -62
-36 -65 -39 -3 -3 -21 -14 -40 -23 -41 -20 -113 -61 -120 -68 -3 -3 -16 -11
-30 -18 -14 -7 -43 -23 -65 -35 -42 -25 -118 -68 -171 -98 -70 -39 -79 -44
-84 -49 -3 -3 -16 -11 -30 -18 -14 -6 -52 -28 -85 -47 -33 -20 -67 -39 -75
-42 -8 -4 -17 -9 -20 -13 -3 -3 -21 -14 -40 -24 -19 -10 -49 -26 -65 -35 l-31
-16 0 -2661 0 -2661 10238 0 c7333 0 10238 3 10239 11 0 6 1 1202 2 2658 l2
2646 -40 25 c-84 51 -190 111 -191 106 -1 -2 -10 3 -20 12 -11 8 -66 42 -124
74 -58 33 -107 62 -110 65 -3 3 -21 14 -40 24 -52 26 -76 40 -94 55 -9 7 -16
10 -16 6 0 -4 -6 -3 -13 3 -10 8 -383 224 -577 334 -19 11 -75 43 -125 71 -49
28 -98 57 -108 65 -9 8 -17 13 -17 9 0 -5 -151 81 -175 100 -6 4 -33 19 -60
33 -28 13 -52 27 -55 30 -6 6 -30 19 -110 63 -30 17 -71 40 -90 52 -19 12 -42
25 -50 29 -8 4 -24 12 -35 19 -11 7 -52 30 -90 51 -39 22 -72 42 -75 45 -3 3
-25 16 -50 29 -25 13 -61 32 -80 44 -42 24 -301 173 -350 201 -19 10 -64 36
-100 57 -36 21 -82 47 -102 59 -21 11 -53 29 -70 40 -124 71 -158 89 -158 83
0 -4 -4 -2 -8 4 -9 13 -102 70 -130 78 -12 4 -22 12 -22 17 0 5 -6 9 -14 9 -8
0 -21 6 -28 13 -7 7 -24 18 -38 24 -14 7 -56 31 -95 53 -140 81 -214 121 -217
118 -2 -2 -14 7 -28 20 -13 12 -28 22 -32 22 -5 0 -27 12 -51 27 -23 15 -60
37 -82 48 -22 12 -57 32 -77 44 -21 11 -55 30 -75 42 -21 12 -42 25 -48 29 -5
4 -37 22 -70 40 -33 18 -73 41 -90 52 -16 10 -41 23 -55 29 -13 5 -27 13 -30
17 -3 4 -16 13 -30 20 -14 6 -32 16 -40 22 -50 32 -404 230 -411 230 -5 0 -9
4 -9 9 0 5 -8 11 -17 14 -10 3 -45 22 -78 41 -33 20 -71 41 -85 48 -14 7 -27
15 -30 18 -3 3 -25 16 -50 29 -25 14 -61 34 -81 45 l-36 20 -119 -68 c-65 -38
-136 -79 -156 -92 -21 -14 -38 -21 -38 -17 0 5 -4 3 -8 -2 -9 -13 -240 -145
-253 -145 -5 0 -9 -4 -9 -9 0 -5 -17 -16 -37 -25 -21 -9 -76 -39 -121 -66 -46
-28 -88 -50 -93 -50 -5 0 -9 -4 -9 -10 0 -5 -5 -10 -10 -10 -6 0 -35 -15 -66
-32 -31 -18 -72 -42 -92 -54 -68 -37 -128 -72 -153 -85 -13 -8 -26 -16 -29
-19 -3 -3 -16 -11 -30 -17 -14 -7 -43 -24 -65 -38 -34 -21 -75 -42 -95 -48 -3
-1 -13 -8 -23 -17 -10 -8 -20 -13 -24 -12 -3 2 -9 0 -12 -6 -3 -5 -73 -47
-154 -93 -81 -46 -162 -92 -180 -103 -18 -10 -61 -34 -97 -54 -36 -19 -76 -43
-90 -52 -14 -9 -77 -45 -140 -80 -63 -35 -117 -66 -120 -69 -3 -4 -23 -16 -45
-28 -22 -11 -56 -30 -75 -42 -19 -11 -51 -29 -70 -39 -19 -11 -54 -29 -77 -42
l-42 -23 -118 68 c-65 38 -131 76 -148 84 -16 9 -31 19 -33 24 -2 4 -8 7 -14
7 -5 0 -23 9 -39 21 -16 11 -29 17 -29 12 0 -4 -4 -3 -8 2 -9 13 -168 105
-181 105 -5 0 -11 3 -13 8 -3 7 -69 45 -115 67 -13 5 -23 13 -23 18 0 4 -4 7
-10 7 -5 0 -31 13 -57 28 -88 53 -138 80 -147 80 -5 0 -12 4 -15 9 -8 12 -168
103 -181 103 -5 0 -10 3 -10 8 0 4 -10 12 -23 18 -50 24 -143 78 -158 90 -8 8
-19 14 -23 14 -4 0 -50 25 -102 55 -53 30 -100 55 -105 55 -5 0 -9 5 -9 10 0
6 -6 10 -14 10 -7 0 -19 7 -26 15 -7 8 -16 12 -21 9 -5 -3 -9 -2 -9 3 0 4 -13
14 -30 21 -16 7 -45 24 -65 37 -19 14 -35 22 -35 20 0 -3 -30 14 -67 38 -38
23 -86 51 -108 62 -22 11 -42 22 -45 25 -5 5 -25 17 -99 57 -25 14 -71 40
-101 58 -30 18 -72 42 -92 54 -39 21 -78 44 -145 83 -21 11 -55 30 -75 41
l-37 20 -80 -46 c-44 -26 -84 -47 -87 -47 -4 0 -15 -6 -23 -14 -9 -7 -41 -27
-71 -43 -30 -17 -77 -43 -105 -60 -27 -16 -57 -32 -65 -36 -8 -4 -28 -15 -45
-26 -29 -18 -67 -40 -150 -86 -22 -13 -96 -55 -163 -94 -68 -39 -128 -71 -133
-71 -5 0 -9 -3 -9 -7 0 -5 -19 -17 -43 -27 -23 -11 -49 -25 -57 -31 -8 -7 -35
-23 -60 -36 -25 -13 -52 -28 -60 -35 -8 -6 -44 -27 -80 -47 -68 -36 -164 -90
-190 -107 -8 -5 -42 -24 -75 -43 -105 -59 -129 -74 -175 -101 -25 -15 -53 -29
-62 -33 -10 -3 -18 -9 -18 -14 0 -5 -5 -9 -11 -9 -5 0 -56 -26 -112 -59 -56
-32 -124 -71 -152 -86 -27 -15 -54 -31 -60 -35 -5 -4 -32 -20 -60 -35 -27 -16
-61 -35 -75 -42 -14 -8 -47 -28 -75 -44 -27 -17 -58 -33 -67 -36 -10 -3 -18
-9 -18 -14 0 -5 -6 -9 -13 -9 -7 0 -29 -11 -48 -25 -20 -13 -39 -21 -43 -18
-3 4 -6 1 -6 -5 0 -33 -58 -18 -150 38 -22 14 -178 103 -230 132 -53 30 -57
32 -309 177 -106 61 -198 111 -202 111 -5 0 -9 3 -9 8 0 4 -15 13 -32 21 -18
8 -41 21 -50 29 -10 8 -18 11 -18 6 0 -5 -4 -4 -8 2 -7 10 -759 443 -857 493
-27 14 -52 29 -55 32 -9 10 -362 209 -371 209 -5 0 -9 5 -9 10 0 6 -4 10 -10
10 -5 0 -31 13 -57 28 -87 52 -148 86 -151 84 -1 -2 -10 4 -18 13 -22 22 -30
20 -128 -35z"/>
</g>
</svg>
