<svg width="32" height="30" viewBox="0 0 32 30" fill="none" xmlns="http://www.w3.org/2000/svg">
<g clip-path="url(#clip0)">
<path d="M26.9452 0H5.05481C2.26756 0 0 2.45244 0 5.46688V19.2879C0 22.3024 2.26756 24.7548 5.05481 24.7548H11.6308L15.1699 31.4982C15.3319 31.8068 15.6516 32 16 32C16.3484 32 16.6681 31.8068 16.8301 31.4982L20.3692 24.7548H26.9452C29.7324 24.7548 32 22.3024 32 19.2879V5.46688C32 2.45244 29.7324 0 26.9452 0V0ZM30.125 19.2879C30.125 21.2685 28.6986 22.8798 26.9452 22.8798H19.8025C19.4541 22.8798 19.1344 23.0731 18.9724 23.3816L16 29.0451L13.0276 23.3816C12.8656 23.0731 12.5459 22.8798 12.1975 22.8798H5.05481C3.30144 22.8798 1.875 21.2685 1.875 19.2879V5.46688C1.875 3.48631 3.30144 1.875 5.05481 1.875H26.9452C28.6986 1.875 30.125 3.48631 30.125 5.46688V19.2879Z" fill="#727272"/>
<path d="M14.9679 10.5098C15.4926 9.88632 15.8097 9.08257 15.8097 8.20582C15.8097 6.22994 14.2021 4.62244 12.2261 4.62244C10.2501 4.62244 8.64249 6.22994 8.64249 8.20582C8.64249 9.08257 8.95949 9.88632 9.48424 10.5098C7.40256 11.4661 5.95337 13.5707 5.95337 16.0076V16.0443C5.95337 16.9748 6.71037 17.7318 7.64087 17.7318H16.8112C17.7417 17.7318 18.4987 16.9748 18.4987 16.0443V16.0076C18.4987 13.5707 17.0496 11.4661 14.9679 10.5098V10.5098ZM12.2261 6.49744C13.1682 6.49744 13.9347 7.26381 13.9347 8.20582C13.9347 9.14782 13.1682 9.91413 12.2261 9.91413C11.284 9.91413 10.5175 9.14775 10.5175 8.20582C10.5175 7.26388 11.284 6.49744 12.2261 6.49744ZM7.83112 15.8568C7.91062 13.626 9.75031 11.8358 12.0002 11.8358H12.452C14.7019 11.8358 16.5416 13.626 16.6211 15.8568H7.83112Z" fill="#727272"/>
<path d="M24.1085 7.62714C23.9711 7.62714 23.8463 7.65214 23.7464 7.71451L22.0982 8.71332C21.8485 8.86314 21.7361 9.11289 21.7361 9.37507C21.7361 9.76214 21.9858 10.1492 22.3479 10.1492C22.4353 10.1492 22.5476 10.1242 22.6601 10.0493L23.0221 9.82457V16.1797C23.0221 16.5793 23.5091 16.779 23.9961 16.779C24.4831 16.779 24.9701 16.5793 24.9701 16.1797V8.23889C24.9701 7.86439 24.5081 7.62714 24.1085 7.62714V7.62714Z" fill="#727272"/>
</g>
<defs>
<clipPath id="clip0">
<rect width="32" height="32" fill="white"/>
</clipPath>
</defs>
</svg>
