<svg width="32" height="32" viewBox="0 0 32 32" fill="none" xmlns="http://www.w3.org/2000/svg">
<g clip-path="url(#clip0)">
<path d="M11.1036 9.49951C10.9955 9.64151 10.9774 9.83264 11.057 9.99239C11.9992 11.8843 13.8932 13.0595 16 13.0595C18.1068 13.0595 20.0008 11.8842 20.943 9.99239C21.0226 9.83264 21.0045 9.64151 20.8964 9.49951C20.1117 8.46883 19.0548 7.73226 17.8625 7.35632C18.5514 6.80726 18.9942 5.96189 18.9942 5.01451C18.9942 3.36351 17.651 2.02032 16 2.02032C14.349 2.02032 13.0058 3.36351 13.0058 5.01451C13.0058 5.96189 13.4486 6.80726 14.1375 7.35632C12.9452 7.73226 11.8883 8.46883 11.1036 9.49951V9.49951ZM13.9433 5.01451C13.9433 3.88045 14.8659 2.95782 16 2.95782C17.1341 2.95782 18.0567 3.88045 18.0567 5.01451C18.0567 6.14857 17.1341 7.07114 16 7.07114C14.8659 7.07114 13.9433 6.14851 13.9433 5.01451V5.01451ZM16 8.00864C17.5419 8.00864 18.9702 8.6707 19.9635 9.83539C19.1427 11.2531 17.6498 12.122 16 12.122C14.3502 12.122 12.8572 11.2531 12.0365 9.83539C13.0297 8.6707 14.4581 8.00864 16 8.00864Z" fill="#727272"/>
<path d="M30.8181 20.4057C30.6786 20.1875 30.3888 20.1238 30.1707 20.2632C29.9526 20.4026 29.8887 20.6924 30.0282 20.9106C30.7048 21.9692 31.0625 23.1966 31.0625 24.46C31.0625 28.1006 28.1006 31.0625 24.46 31.0625C20.8194 31.0625 17.8575 28.1006 17.8575 24.46C17.8575 20.8194 20.8194 17.8575 24.46 17.8575C26.0002 17.8575 27.4988 18.3989 28.6794 19.3821C28.8784 19.5478 29.1739 19.5208 29.3396 19.3219C29.5052 19.1229 29.4783 18.8273 29.2794 18.6617C27.9305 17.5386 26.219 16.9201 24.4601 16.9201C22.3385 16.9201 20.4191 17.8012 19.0477 19.2162L16.4688 17.6899V15.065C20.4088 14.8221 23.54 11.5401 23.54 7.54C23.54 6.987 23.4799 6.43706 23.3612 5.90544C23.3049 5.65281 23.0544 5.49338 22.8017 5.55C22.5491 5.60638 22.3899 5.85687 22.4463 6.10956C22.5499 6.57431 22.6025 7.05556 22.6025 7.54C22.6025 11.1806 19.6406 14.1425 16 14.1425C12.3594 14.1425 9.3975 11.1806 9.3975 7.54C9.3975 3.89937 12.3594 0.9375 16 0.9375C18.3371 0.9375 20.5227 2.19256 21.7041 4.21287C21.8348 4.43637 22.1219 4.51156 22.3454 4.38088C22.5689 4.25019 22.6441 3.96312 22.5134 3.73962C21.1646 1.43294 18.6688 0 16 0C11.8424 0 8.46 3.38244 8.46 7.54C8.46 11.5401 11.5912 14.8221 15.5312 15.065V17.6899L12.9524 19.2162C11.5809 17.8011 9.66156 16.92 7.54 16.92C4.77519 16.92 2.236 18.4301 0.91325 20.8609C0.7895 21.0883 0.873562 21.3729 1.10094 21.4967C1.32837 21.6204 1.61294 21.5364 1.73669 21.309C2.89513 19.1801 5.11881 17.8575 7.53994 17.8575C11.1806 17.8575 14.1424 20.8194 14.1424 24.46C14.1424 28.1006 11.1806 31.0625 7.54 31.0625C3.89937 31.0625 0.9375 28.1006 0.9375 24.46C0.9375 24.0457 0.976375 23.6307 1.05306 23.2267C1.10131 22.9724 0.93425 22.7271 0.679875 22.6788C0.425813 22.6307 0.18025 22.7976 0.131938 23.052C0.044375 23.5134 0 23.9872 0 24.46C0 28.6176 3.38244 32 7.54 32C11.6976 32 15.08 28.6176 15.08 24.46C15.08 22.7656 14.5181 21.1999 13.5709 19.9395L16 18.5019L18.4291 19.9396C17.4819 21.2 16.92 22.7656 16.92 24.4601C16.92 28.6176 20.3024 32.0001 24.46 32.0001C28.6176 32.0001 32 28.6176 32 24.46C32 23.0174 31.5913 21.6154 30.8181 20.4057V20.4057Z" fill="#727272"/>
<path d="M19.5637 26.4197C19.4556 26.5617 19.4375 26.7528 19.5171 26.9126C20.4593 28.8044 22.3533 29.9796 24.4601 29.9796C26.5669 29.9796 28.4609 28.8044 29.4031 26.9126C29.4826 26.7528 29.4646 26.5617 29.3565 26.4197C28.5718 25.389 27.5149 24.6524 26.3226 24.2765C27.0115 23.7274 27.4543 22.8821 27.4543 21.9347C27.4543 20.2837 26.1111 18.9406 24.4601 18.9406C22.8091 18.9406 21.466 20.2837 21.466 21.9347C21.466 22.8821 21.9087 23.7275 22.5976 24.2765C21.4053 24.6524 20.3484 25.389 19.5637 26.4197V26.4197ZM22.4034 21.9347C22.4034 20.8006 23.326 19.8781 24.4601 19.8781C25.5941 19.8781 26.5167 20.8007 26.5167 21.9347C26.5167 23.0687 25.5941 23.9914 24.4601 23.9914C23.326 23.9914 22.4034 23.0687 22.4034 21.9347ZM24.4601 24.9289C26.002 24.9289 27.4303 25.5909 28.4236 26.7556C27.6028 28.1734 26.1099 29.0422 24.4601 29.0422C22.8103 29.0422 21.3173 28.1734 20.4966 26.7556C21.4898 25.5909 22.9181 24.9289 24.4601 24.9289Z" fill="#727272"/>
<path d="M2.64354 26.4197C2.53541 26.5617 2.51729 26.7528 2.59691 26.9126C3.5391 28.8044 5.4331 29.9796 7.53991 29.9796C9.64673 29.9796 11.5407 28.8044 12.4829 26.9126C12.5625 26.7528 12.5444 26.5617 12.4363 26.4197C11.6516 25.389 10.5947 24.6524 9.40241 24.2765C10.0914 23.7274 10.5341 22.8821 10.5341 21.9347C10.5341 20.2837 9.19091 18.9406 7.53991 18.9406C5.88891 18.9406 4.54579 20.2837 4.54579 21.9347C4.54579 22.8821 4.98854 23.7275 5.67747 24.2765C4.48516 24.6524 3.42829 25.389 2.64354 26.4197ZM5.48329 21.9347C5.48329 20.8006 6.40591 19.8781 7.53991 19.8781C8.67398 19.8781 9.5966 20.8007 9.5966 21.9347C9.5966 23.0687 8.67398 23.9914 7.53991 23.9914C6.40591 23.9914 5.48329 23.0687 5.48329 21.9347V21.9347ZM7.53991 24.9289C9.08185 24.9289 10.5102 25.5909 11.5034 26.7556C10.6827 28.1734 9.18973 29.0422 7.53991 29.0422C5.8901 29.0422 4.39716 28.1734 3.57641 26.7556C4.56966 25.5909 5.99798 24.9289 7.53991 24.9289Z" fill="#727272"/>
</g>
<defs>
<clipPath id="clip0">
<rect width="32" height="32" fill="white"/>
</clipPath>
</defs>
</svg>
