<svg width="30" height="30" viewBox="0 0 30 30" fill="none" xmlns="http://www.w3.org/2000/svg">
<g clip-path="url(#clip0)">
<path d="M13.8832 13.8932L0.406641 8.21883C0.213574 8.1375 0 8.2793 0 8.48883V23.6587C0 24.042 0.233379 24.3868 0.589336 24.5291L13.6607 29.7577C13.8531 29.8346 14.0625 29.6929 14.0625 29.4857V14.1632C14.0625 14.0453 13.9918 13.9389 13.8832 13.8932Z" fill="#D6A81A"/>
<path d="M15.1138 12.2811L28.1401 6.79633C28.3742 6.69778 28.3805 6.36825 28.1503 6.26085L15.3966 0.309126C15.1453 0.19188 14.855 0.19188 14.6037 0.309126L1.85 6.26085C1.61978 6.36825 1.62605 6.69778 1.86019 6.79633L14.8865 12.2811C14.9591 12.3117 15.0412 12.3117 15.1138 12.2811Z" fill="#D6A81A"/>
</g>
<defs>
<clipPath id="clip0">
<rect width="30" height="30" fill="white"/>
</clipPath>
</defs>
</svg>
