<svg width="32" height="33" viewBox="0 0 32 33" fill="none" xmlns="http://www.w3.org/2000/svg">
<path d="M18.8571 22.2173H13.1428C12.6666 22.2173 12.2619 22.3838 11.9286 22.7173C11.5952 23.0507 11.4287 23.4553 11.4287 23.9313V27.3602C11.4287 27.8362 11.5952 28.2414 11.9286 28.5747C12.2618 28.9079 12.6666 29.0742 13.1428 29.0742H18.8571C19.3335 29.0742 19.7381 28.9077 20.0716 28.5747C20.4046 28.2412 20.5716 27.8362 20.5716 27.3602V23.9313C20.5716 23.4553 20.4051 23.0503 20.0716 22.7173C19.7381 22.3842 19.3335 22.2173 18.8571 22.2173Z" fill="#D6A81A"/>
<path d="M7.42861 22.2173H1.71413C1.23809 22.2173 0.833234 22.3838 0.499865 22.7173C0.166559 23.0507 0 23.4555 0 23.9315V27.3607C0 27.8366 0.166559 28.2417 0.499865 28.5747C0.833234 28.9082 1.23809 29.0745 1.71413 29.0745H7.42861C7.90465 29.0745 8.30951 28.9079 8.64288 28.5747C8.97624 28.2417 9.14274 27.8366 9.14274 27.3607V23.9315C9.14274 23.4555 8.97624 23.0507 8.64288 22.7175C8.30951 22.3842 7.90465 22.2173 7.42861 22.2173Z" fill="#D6A81A"/>
<path d="M7.42861 3.93127H1.71413C1.23809 3.93127 0.833234 4.09783 0.499865 4.4312C0.166559 4.76457 0 5.16943 0 5.64546V9.07427C0 9.55062 0.166559 9.9556 0.499865 10.2887C0.833234 10.6219 1.23809 10.7887 1.71413 10.7887H7.42861C7.90465 10.7887 8.30951 10.6219 8.64288 10.2887C8.97624 9.95554 9.14274 9.55081 9.14274 9.07446V5.64571C9.14274 5.16968 8.97624 4.76482 8.64288 4.43126C8.30951 4.09802 7.90465 3.93127 7.42861 3.93127Z" fill="#D6A81A"/>
<path d="M18.8571 13.0745H13.1428C12.6666 13.0745 12.2619 13.2411 11.9286 13.5745C11.5952 13.9078 11.4287 14.3124 11.4287 14.7887V18.2176C11.4287 18.6936 11.5952 19.0982 11.9286 19.4314C12.2618 19.7647 12.6666 19.9314 13.1428 19.9314H18.8571C19.3335 19.9314 19.7381 19.7647 20.0716 19.4314C20.4046 19.0982 20.5716 18.6936 20.5716 18.2176V14.7887C20.5716 14.3124 20.4051 13.9076 20.0716 13.5745C19.7381 13.2413 19.3335 13.0745 18.8571 13.0745Z" fill="#D6A81A"/>
<path d="M7.42861 13.0745H1.71413C1.23809 13.0745 0.833234 13.2411 0.499865 13.5745C0.166559 13.9076 0 14.3124 0 14.7887V18.2176C0 18.6936 0.166559 19.0982 0.499865 19.4314C0.833234 19.7647 1.23809 19.9314 1.71413 19.9314H7.42861C7.90465 19.9314 8.30951 19.7647 8.64288 19.4314C8.97624 19.0982 9.14274 18.6936 9.14274 18.2176V14.7887C9.14274 14.3124 8.97624 13.9076 8.64288 13.5745C8.30951 13.2413 7.90465 13.0745 7.42861 13.0745Z" fill="#D6A81A"/>
<path d="M31.5001 4.43145C31.1666 4.09827 30.762 3.93152 30.2861 3.93152H24.5716C24.0956 3.93152 23.6906 4.09808 23.3571 4.43145C23.0241 4.76481 22.8576 5.16967 22.8576 5.64571V9.07452C22.8576 9.55086 23.0241 9.95535 23.3571 10.2888C23.6906 10.622 24.0956 10.7888 24.5716 10.7888H30.2861C30.762 10.7888 31.1666 10.622 31.5001 10.2888C31.8336 9.9556 32.0001 9.55086 32.0001 9.07452V5.64571C32.0001 5.16961 31.8336 4.76481 31.5001 4.43145Z" fill="#D6A81A"/>
<path d="M18.8571 3.93152H13.1428C12.6666 3.93152 12.2619 4.09808 11.9286 4.43145C11.5952 4.76481 11.4287 5.16967 11.4287 5.64571V9.07452C11.4287 9.55086 11.5952 9.95535 11.9286 10.2888C12.2618 10.622 12.6666 10.7888 13.1428 10.7888H18.8571C19.3335 10.7888 19.7381 10.6221 20.0716 10.2888C20.4046 9.9556 20.5716 9.55086 20.5716 9.07452V5.64571C20.5716 5.16967 20.4051 4.76481 20.0716 4.43145C19.7381 4.09827 19.3335 3.93152 18.8571 3.93152Z" fill="#D6A81A"/>
<path d="M30.2861 13.0745H24.5716C24.0956 13.0745 23.6906 13.2411 23.3571 13.5745C23.0241 13.9078 22.8576 14.3124 22.8576 14.7887V18.2176C22.8576 18.6936 23.0241 19.0982 23.3571 19.4314C23.6906 19.7647 24.0956 19.9314 24.5716 19.9314H30.2861C30.762 19.9314 31.167 19.7647 31.5001 19.4314C31.8336 19.0982 32.0001 18.6936 32.0001 18.2176V14.7887C32.0001 14.3124 31.8336 13.9076 31.5001 13.5745C31.1666 13.2411 30.7621 13.0745 30.2861 13.0745Z" fill="#D6A81A"/>
<path d="M30.2861 22.2173H24.5716C24.0956 22.2173 23.6906 22.3838 23.3571 22.7173C23.0241 23.0507 22.8576 23.4553 22.8576 23.9313V27.3602C22.8576 27.8362 23.0241 28.2414 23.3571 28.5747C23.6906 28.9079 24.0956 29.0742 24.5716 29.0742H30.2861C30.762 29.0742 31.167 28.9077 31.5001 28.5747C31.8336 28.2412 32.0001 27.8362 32.0001 27.3602V23.9313C32.0001 23.4553 31.8336 23.0503 31.5001 22.7173C31.1666 22.3842 30.7621 22.2173 30.2861 22.2173Z" fill="#D6A81A"/>
</svg>
